<svg width="600" height="600" viewBox="0 0 600 600" fill="none" xmlns="http://www.w3.org/2000/svg">
<g filter="url(#filter0_d)">
<rect x="150.12" y="375.829" width="298.086" height="46.9318" rx="16" fill="#6E78FF"/>
</g>
<path d="M147.15 435.298C143.158 435.296 139.236 434.245 135.778 432.251C132.32 430.258 129.448 427.392 127.448 423.94C125.448 420.489 124.392 416.573 124.384 412.585C124.377 408.597 125.419 404.678 127.406 401.219L245.56 195.414V140.483H233.471C231.457 140.483 229.525 139.684 228.101 138.261C226.677 136.839 225.877 134.91 225.877 132.898V118.585C225.877 116.573 226.677 114.644 228.101 113.222C229.525 111.799 231.457 111 233.471 111H365.864C367.878 111 369.809 111.799 371.233 113.222C372.657 114.644 373.457 116.573 373.457 118.585V132.898C373.457 134.91 372.657 136.839 371.233 138.261C369.809 139.684 367.878 140.483 365.864 140.483H353.782V195.414L471.997 401.226C473.983 404.685 475.025 408.605 475.018 412.593C475.011 416.581 473.954 420.496 471.955 423.948C469.955 427.4 467.082 430.266 463.624 432.259C460.166 434.252 456.245 435.303 452.252 435.306L147.15 435.298Z" fill="#6E78FF"/>
<path d="M262.086 388.56C254.779 388.56 248.231 387.372 242.442 384.998C236.654 382.623 232.004 379.109 228.493 374.455C225.076 369.801 223.273 364.197 223.083 357.643H248.99C249.37 361.348 250.651 364.197 252.833 366.192C255.016 368.091 257.863 369.041 261.374 369.041C264.98 369.041 267.827 368.234 269.915 366.619C272.003 364.909 273.046 362.582 273.046 359.638C273.046 357.168 272.192 355.126 270.484 353.512C268.871 351.897 266.831 350.567 264.363 349.522C261.991 348.478 258.575 347.29 254.115 345.961C247.662 343.966 242.395 341.971 238.314 339.977C234.234 337.982 230.723 335.038 227.781 331.144C224.839 327.249 223.368 322.168 223.368 315.899C223.368 306.591 226.737 299.325 233.475 294.101C240.212 288.782 248.99 286.123 259.808 286.123C270.816 286.123 279.689 288.782 286.427 294.101C293.164 299.325 296.77 306.638 297.245 316.042H270.911C270.721 312.812 269.535 310.295 267.353 308.491C265.17 306.591 262.371 305.641 258.954 305.641C256.013 305.641 253.64 306.449 251.837 308.063C250.034 309.583 249.133 311.815 249.133 314.759C249.133 317.989 250.651 320.506 253.688 322.31C256.724 324.115 261.469 326.062 267.922 328.152C274.375 330.336 279.594 332.426 283.58 334.42C287.66 336.415 291.172 339.312 294.113 343.111C297.055 346.91 298.526 351.802 298.526 357.786C298.526 363.485 297.055 368.661 294.113 373.315C291.267 377.969 287.091 381.673 281.587 384.428C276.083 387.182 269.583 388.56 262.086 388.56Z" fill="white"/>
<ellipse cx="352.751" cy="369.125" rx="20.0957" ry="20.1136" fill="white"/>
<ellipse cx="365.311" cy="318.003" rx="14.2344" ry="14.2472" fill="white"/>
<ellipse cx="330.144" cy="306.27" rx="9.21053" ry="9.21874" fill="white"/>
<ellipse cx="333.493" cy="264.366" rx="10.8852" ry="10.8949" fill="white"/>
<defs>
<filter id="filter0_d" x="120.12" y="360.829" width="358.086" height="106.932" filterUnits="userSpaceOnUse" color-interpolation-filters="sRGB">
<feFlood flood-opacity="0" result="BackgroundImageFix"/>
<feColorMatrix in="SourceAlpha" type="matrix" values="0 0 0 0 0 0 0 0 0 0 0 0 0 0 0 0 0 0 127 0"/>
<feOffset dy="15"/>
<feGaussianBlur stdDeviation="15"/>
<feColorMatrix type="matrix" values="0 0 0 0 0 0 0 0 0 0.0839841 0 0 0 0 1 0 0 0 0.4 0"/>
<feBlend mode="normal" in2="BackgroundImageFix" result="effect1_dropShadow"/>
<feBlend mode="normal" in="SourceGraphic" in2="effect1_dropShadow" result="shape"/>
</filter>
</defs>
</svg>
