<svg width="452" height="488" viewBox="0 0 452 488" fill="none" xmlns="http://www.w3.org/2000/svg">
<g filter="url(#filter0_d)">
<rect x="33.2969" y="340.495" width="383.254" height="60.3409" rx="16" fill="#6E78FF"/>
</g>
<path d="M29.4784 416.955C24.3452 416.952 19.3031 415.601 14.8572 413.038C10.4113 410.475 6.71787 406.79 4.14684 402.352C1.57581 397.914 0.217521 392.88 0.208058 387.752C0.198594 382.625 1.53829 377.586 4.09292 373.139L156.006 108.532V37.9068H140.462C137.872 37.9068 135.389 36.8793 133.558 35.0504C131.727 33.2215 130.698 30.741 130.698 28.1546V9.7522C130.698 7.16575 131.727 4.68524 133.558 2.85635C135.389 1.02746 137.872 0 140.462 0L310.681 0C313.271 0 315.754 1.02746 317.585 2.85635C319.416 4.68524 320.445 7.16575 320.445 9.7522V28.1546C320.445 30.741 319.416 33.2215 317.585 35.0504C315.754 36.8793 313.271 37.9068 310.681 37.9068H295.147V108.532L447.138 373.148C449.693 377.595 451.032 382.635 451.023 387.762C451.013 392.889 449.655 397.924 447.084 402.362C444.513 406.8 440.82 410.484 436.374 413.047C431.928 415.61 426.886 416.961 421.753 416.965L29.4784 416.955Z" fill="#6E78FF"/>
<path d="M177.253 356.862C167.859 356.862 159.44 355.336 151.997 352.283C144.555 349.23 138.576 344.712 134.062 338.728C129.67 332.744 127.351 325.539 127.107 317.113H160.416C160.904 321.875 162.551 325.539 165.357 328.103C168.164 330.546 171.824 331.767 176.338 331.767C180.975 331.767 184.635 330.729 187.319 328.653C190.003 326.455 191.345 323.463 191.345 319.677C191.345 316.502 190.247 313.877 188.051 311.801C185.977 309.725 183.354 308.015 180.182 306.672C177.131 305.328 172.739 303.802 167.005 302.092C158.708 299.528 151.936 296.963 146.69 294.399C141.444 291.834 136.929 288.049 133.147 283.042C129.365 278.035 127.473 271.502 127.473 263.442C127.473 251.474 131.805 242.132 140.467 235.416C149.13 228.577 160.416 225.158 174.325 225.158C188.478 225.158 199.886 228.577 208.549 235.416C217.211 242.132 221.848 251.535 222.458 263.625H188.6C188.356 259.473 186.831 256.237 184.025 253.917C181.219 251.474 177.619 250.253 173.227 250.253C169.445 250.253 166.395 251.291 164.076 253.367C161.758 255.321 160.599 258.191 160.599 261.976C160.599 266.128 162.551 269.364 166.456 271.685C170.36 274.005 176.46 276.508 184.757 279.195C193.054 282.004 199.764 284.69 204.889 287.255C210.135 289.819 214.649 293.544 218.432 298.429C222.214 303.313 224.105 309.603 224.105 317.296C224.105 324.623 222.214 331.279 218.432 337.262C214.771 343.246 209.403 348.009 202.326 351.55C195.25 355.092 186.892 356.862 177.253 356.862Z" fill="white"/>
<ellipse cx="293.823" cy="331.875" rx="25.8373" ry="25.8604" fill="white"/>
<ellipse cx="309.971" cy="266.146" rx="18.3014" ry="18.3178" fill="white"/>
<ellipse cx="264.756" cy="251.061" rx="11.8421" ry="11.8527" fill="white"/>
<ellipse cx="269.063" cy="197.185" rx="13.9952" ry="14.0077" fill="white"/>
<defs>
<filter id="filter0_d" x="3.29688" y="325.495" width="443.254" height="120.341" filterUnits="userSpaceOnUse" color-interpolation-filters="sRGB">
<feFlood flood-opacity="0" result="BackgroundImageFix"/>
<feColorMatrix in="SourceAlpha" type="matrix" values="0 0 0 0 0 0 0 0 0 0 0 0 0 0 0 0 0 0 127 0"/>
<feOffset dy="15"/>
<feGaussianBlur stdDeviation="15"/>
<feColorMatrix type="matrix" values="0 0 0 0 0 0 0 0 0 0.0839841 0 0 0 0 1 0 0 0 0.4 0"/>
<feBlend mode="normal" in2="BackgroundImageFix" result="effect1_dropShadow"/>
<feBlend mode="normal" in="SourceGraphic" in2="effect1_dropShadow" result="shape"/>
</filter>
</defs>
</svg>
