<svg xmlns="http://www.w3.org/2000/svg" version="1.1" xmlns:xlink="http://www.w3.org/1999/xlink" xmlns:svgjs="http://svgjs.com/svgjs" width="452" height="417"><svg width="452" height="417" viewBox="0 0 452 417" fill="none" xmlns="http://www.w3.org/2000/svg">
<path d="M29.4784 416.955C24.3452 416.952 19.3031 415.601 14.8572 413.038C10.4113 410.475 6.71787 406.79 4.14684 402.352C1.57581 397.914 0.217521 392.88 0.208058 387.752C0.198594 382.625 1.53829 377.586 4.09292 373.139L156.006 108.532V37.9068H140.462C137.872 37.9068 135.389 36.8793 133.558 35.0504C131.727 33.2215 130.698 30.741 130.698 28.1546V9.7522C130.698 7.16575 131.727 4.68524 133.558 2.85635C135.389 1.02746 137.872 0 140.462 0L310.681 0C313.271 0 315.754 1.02746 317.585 2.85635C319.416 4.68524 320.445 7.16575 320.445 9.7522V28.1546C320.445 30.741 319.416 33.2215 317.585 35.0504C315.754 36.8793 313.271 37.9068 310.681 37.9068H295.147V108.532L447.138 373.148C449.693 377.595 451.032 382.635 451.023 387.762C451.013 392.889 449.655 397.924 447.084 402.362C444.513 406.8 440.82 410.484 436.374 413.047C431.928 415.61 426.886 416.961 421.753 416.965L29.4784 416.955Z" fill="#6E78FF"></path>
</svg><style>@media (prefers-color-scheme: light) { :root { filter: none; } }
</style></svg>